<mxfile host="65bd71144e" scale="1" border="5">
    <diagram name="Page-1" id="9CptkLMM0ztSRVp6YB5i">
        <mxGraphModel dx="1363" dy="779" grid="0" gridSize="10" guides="1" tooltips="1" connect="1" arrows="1" fold="1" page="1" pageScale="1" pageWidth="827" pageHeight="583" background="#FFFFFF" math="1" shadow="0">
            <root>
                <mxCell id="0"/>
                <mxCell id="1" parent="0"/>
                <mxCell id="IWCZdA42NEQNfxDkU8em-257" value="" style="edgeStyle=orthogonalEdgeStyle;curved=1;rounded=0;orthogonalLoop=1;jettySize=auto;html=1;entryX=0.47;entryY=1.071;entryDx=0;entryDy=0;entryPerimeter=0;" parent="1" edge="1">
                    <mxGeometry relative="1" as="geometry">
                        <mxPoint x="516.3100000000001" y="400.28" as="sourcePoint"/>
                    </mxGeometry>
                </mxCell>
                <mxCell id="IWCZdA42NEQNfxDkU8em-532" value="&lt;b style=&quot;&quot;&gt;&lt;font style=&quot;font-size: 8px; color: rgb(199, 199, 199);&quot;&gt;@iriacardielperez&lt;/font&gt;&lt;/b&gt;" style="text;html=1;align=center;verticalAlign=middle;whiteSpace=wrap;rounded=0;rotation=0;" parent="1" vertex="1">
                    <mxGeometry x="630.69" y="352" width="86" height="43" as="geometry"/>
                </mxCell>
                <mxCell id="152" value="$$y$$" style="ellipse;whiteSpace=wrap;html=1;fillColor=#00CCCC;" vertex="1" parent="1">
                    <mxGeometry x="207" y="220.02999999999997" width="30" height="30" as="geometry"/>
                </mxCell>
                <mxCell id="153" value="&lt;b style=&quot;&quot;&gt;&lt;font style=&quot;font-size: 6px;&quot;&gt;n_embd x vocab_size&lt;/font&gt;&lt;/b&gt;" style="text;html=1;align=center;verticalAlign=middle;whiteSpace=wrap;rounded=0;" vertex="1" parent="1">
                    <mxGeometry x="224" y="302.65999999999997" width="70" height="15" as="geometry"/>
                </mxCell>
                <mxCell id="179" style="edgeStyle=none;html=1;exitX=0.5;exitY=0;exitDx=0;exitDy=0;entryX=0.5;entryY=1;entryDx=0;entryDy=0;" edge="1" parent="1" source="155" target="152">
                    <mxGeometry relative="1" as="geometry"/>
                </mxCell>
                <mxCell id="155" value="&lt;font style=&quot;font-size: 10px;&quot;&gt;Softmax&lt;/font&gt;" style="rounded=1;whiteSpace=wrap;html=1;fillColor=#CCFFFF;" vertex="1" parent="1">
                    <mxGeometry x="172" y="272.65999999999997" width="100" height="14" as="geometry"/>
                </mxCell>
                <mxCell id="156" value="&lt;font style=&quot;font-size: 10px;&quot;&gt;Linear&lt;/font&gt;" style="rounded=1;whiteSpace=wrap;html=1;fillColor=#CCCCFF;" vertex="1" parent="1">
                    <mxGeometry x="173" y="289.65999999999997" width="100" height="14" as="geometry"/>
                </mxCell>
                <mxCell id="157" value="" style="rounded=1;whiteSpace=wrap;html=1;shadow=1;" vertex="1" parent="1">
                    <mxGeometry x="318.61" y="222.63" width="407.23" height="126.47" as="geometry"/>
                </mxCell>
                <mxCell id="158" value="&lt;b style=&quot;&quot;&gt;&lt;font style=&quot;font-size: 8px; background-color: rgb(204, 255, 255);&quot;&gt;logits&amp;nbsp;&lt;/font&gt;&lt;/b&gt;&lt;div&gt;&lt;b style=&quot;&quot;&gt;&lt;font style=&quot;font-size: 8px;&quot;&gt;preference for next tokens&lt;/font&gt;&lt;/b&gt;&lt;/div&gt;" style="text;html=1;align=center;verticalAlign=middle;whiteSpace=wrap;rounded=0;" vertex="1" parent="1">
                    <mxGeometry x="336.53000000000003" y="231.99000000000004" width="108.6" height="20" as="geometry"/>
                </mxCell>
                <mxCell id="159" value="" style="shape=crossbar;whiteSpace=wrap;html=1;rounded=1;direction=south;" vertex="1" parent="1">
                    <mxGeometry x="627.4400000000002" y="283.65999999999997" width="10" height="34" as="geometry"/>
                </mxCell>
                <mxCell id="160" value="&lt;span style=&quot;font-size: 10px;&quot;&gt;&lt;b&gt;B&lt;/b&gt;&lt;/span&gt;" style="text;html=1;align=center;verticalAlign=middle;whiteSpace=wrap;rounded=0;" vertex="1" parent="1">
                    <mxGeometry x="637.98" y="283.65999999999997" width="17.44" height="30" as="geometry"/>
                </mxCell>
                <mxCell id="161" value="&lt;div&gt;&lt;b style=&quot;&quot;&gt;&lt;font style=&quot;font-size: 8px; background-color: rgb(0, 204, 204);&quot;&gt;sampled tokens&lt;/font&gt;&lt;/b&gt;&lt;/div&gt;&lt;div&gt;&lt;b style=&quot;color: rgb(0, 0, 0);&quot;&gt;&lt;font style=&quot;font-size: 8px;&quot;&gt;idx fo next token for each sequence in the batch&lt;/font&gt;&lt;/b&gt;&lt;/div&gt;" style="text;html=1;align=center;verticalAlign=middle;whiteSpace=wrap;rounded=0;" vertex="1" parent="1">
                    <mxGeometry x="591.57" y="236.60000000000002" width="120" height="22" as="geometry"/>
                </mxCell>
                <mxCell id="162" value="" style="shape=cube;whiteSpace=wrap;html=1;boundedLbl=1;backgroundOutline=1;darkOpacity=0.05;darkOpacity2=0.1;size=15;direction=east;rotation=0;" vertex="1" parent="1">
                    <mxGeometry x="354.72" y="272.78999999999996" width="67.04" height="44.74" as="geometry"/>
                </mxCell>
                <mxCell id="163" value="" style="shape=crossbar;whiteSpace=wrap;html=1;rounded=1;direction=south;" vertex="1" parent="1">
                    <mxGeometry x="427.22" y="288.53" width="6.27" height="28.26" as="geometry"/>
                </mxCell>
                <mxCell id="164" value="" style="shape=crossbar;whiteSpace=wrap;html=1;rounded=1;direction=south;rotation=-45;" vertex="1" parent="1">
                    <mxGeometry x="417.36" y="266.76999999999987" width="7.27" height="19.09" as="geometry"/>
                </mxCell>
                <mxCell id="165" value="&lt;span style=&quot;font-size: 10px;&quot;&gt;&lt;b&gt;B&lt;/b&gt;&lt;/span&gt;" style="text;html=1;align=center;verticalAlign=middle;whiteSpace=wrap;rounded=0;" vertex="1" parent="1">
                    <mxGeometry x="431.04" y="287.6600000000001" width="19.17" height="30" as="geometry"/>
                </mxCell>
                <mxCell id="166" value="&lt;b style=&quot;&quot;&gt;&lt;font style=&quot;font-size: 8px;&quot;&gt;vocab_size&lt;/font&gt;&lt;/b&gt;" style="text;html=1;align=center;verticalAlign=middle;whiteSpace=wrap;rounded=0;" vertex="1" parent="1">
                    <mxGeometry x="406.13" y="262.18999999999994" width="80" height="15" as="geometry"/>
                </mxCell>
                <mxCell id="167" value="" style="shape=crossbar;whiteSpace=wrap;html=1;rounded=1;direction=south;rotation=-90;" vertex="1" parent="1">
                    <mxGeometry x="393.58000000000004" y="297.6600000000001" width="5.68" height="51.44" as="geometry"/>
                </mxCell>
                <mxCell id="168" value="&lt;span style=&quot;font-size: 10px;&quot;&gt;&lt;b&gt;T&lt;/b&gt;&lt;/span&gt;" style="text;html=1;align=center;verticalAlign=middle;whiteSpace=wrap;rounded=0;" vertex="1" parent="1">
                    <mxGeometry x="376.79" y="320.81000000000006" width="38.47" height="20" as="geometry"/>
                </mxCell>
                <mxCell id="169" value="" style="shape=cube;whiteSpace=wrap;html=1;boundedLbl=1;backgroundOutline=1;darkOpacity=0.05;darkOpacity2=0.1;size=13;direction=east;rotation=0;strokeColor=#00CCCC;fillColor=none;" vertex="1" parent="1">
                    <mxGeometry x="397.74" y="272.78999999999996" width="24.02" height="47.2" as="geometry"/>
                </mxCell>
                <mxCell id="170" value="&lt;span style=&quot;background-color: rgb(204, 255, 255);&quot;&gt;&lt;b style=&quot;&quot;&gt;&lt;font style=&quot;font-size: 8px;&quot;&gt;probs&lt;/font&gt;&lt;/b&gt;&lt;/span&gt;&lt;div&gt;&lt;b style=&quot;&quot;&gt;&lt;font style=&quot;font-size: 8px;&quot;&gt;probability distribution over vocab size&lt;/font&gt;&lt;/b&gt;&lt;/div&gt;" style="text;html=1;align=center;verticalAlign=middle;whiteSpace=wrap;rounded=0;" vertex="1" parent="1">
                    <mxGeometry x="479.7900000000001" y="225.9" width="103.04" height="48.63" as="geometry"/>
                </mxCell>
                <mxCell id="171" value="" style="shape=cube;whiteSpace=wrap;html=1;boundedLbl=1;backgroundOutline=1;darkOpacity=0.05;darkOpacity2=0.1;size=13;direction=east;rotation=0;strokeColor=#00CCCC;fillColor=none;" vertex="1" parent="1">
                    <mxGeometry x="519.3" y="279.53" width="24.02" height="47.2" as="geometry"/>
                </mxCell>
                <mxCell id="172" value="" style="shape=cube;whiteSpace=wrap;html=1;boundedLbl=1;backgroundOutline=1;darkOpacity=0.05;darkOpacity2=0.1;size=0;direction=east;rotation=0;strokeColor=#00CCCC;" vertex="1" parent="1">
                    <mxGeometry x="613.4200000000002" y="283.65999999999997" width="9.56" height="28" as="geometry"/>
                </mxCell>
                <mxCell id="173" value="&lt;b style=&quot;forced-color-adjust: none; font-family: Helvetica; font-size: 12px; font-style: normal; font-variant-ligatures: normal; font-variant-caps: normal; letter-spacing: normal; orphans: 2; text-align: justify; text-indent: 0px; text-transform: none; widows: 2; word-spacing: 0px; -webkit-text-stroke-width: 0px; white-space: normal; text-decoration-thickness: initial; text-decoration-style: initial; text-decoration-color: initial; background-color: transparent;&quot;&gt;&lt;font style=&quot;forced-color-adjust: none; font-size: 6px; color: rgb(0, 204, 204);&quot;&gt;41&lt;/font&gt;&lt;/b&gt;&lt;div&gt;&lt;b style=&quot;forced-color-adjust: none; font-family: Helvetica; font-size: 12px; font-style: normal; font-variant-ligatures: normal; font-variant-caps: normal; letter-spacing: normal; orphans: 2; text-align: justify; text-indent: 0px; text-transform: none; widows: 2; word-spacing: 0px; -webkit-text-stroke-width: 0px; white-space: normal; text-decoration-thickness: initial; text-decoration-style: initial; text-decoration-color: initial; background-color: transparent;&quot;&gt;&lt;font style=&quot;forced-color-adjust: none; font-size: 6px; color: rgb(0, 204, 204);&quot;&gt;50&amp;nbsp;&lt;/font&gt;&lt;/b&gt;&lt;/div&gt;" style="text;whiteSpace=wrap;html=1;" vertex="1" parent="1">
                    <mxGeometry x="613.4200000000002" y="276.11" width="17.27" height="39.09" as="geometry"/>
                </mxCell>
                <mxCell id="174" value="&lt;font style=&quot;font-size: 10px;&quot;&gt;$$\text{idx}_{ T+1}$$&lt;/font&gt;" style="ellipse;whiteSpace=wrap;html=1;fillColor=#00CCCC;" vertex="1" parent="1">
                    <mxGeometry x="663.53" y="277.19" width="40.27" height="39.17" as="geometry"/>
                </mxCell>
                <mxCell id="175" style="edgeStyle=orthogonalEdgeStyle;curved=1;rounded=0;orthogonalLoop=1;jettySize=auto;html=1;entryX=0;entryY=0.5;entryDx=0;entryDy=0;exitX=1;exitY=0.5;exitDx=0;exitDy=0;" edge="1" parent="1">
                    <mxGeometry relative="1" as="geometry">
                        <mxPoint x="460.21000000000004" y="294.96000000000004" as="sourcePoint"/>
                        <mxPoint x="501.2100000000001" y="294.96000000000004" as="targetPoint"/>
                    </mxGeometry>
                </mxCell>
                <mxCell id="176" style="edgeStyle=orthogonalEdgeStyle;curved=1;rounded=0;orthogonalLoop=1;jettySize=auto;html=1;entryX=0;entryY=0.5;entryDx=0;entryDy=0;exitX=1;exitY=0.5;exitDx=0;exitDy=0;" edge="1" parent="1">
                    <mxGeometry relative="1" as="geometry">
                        <mxPoint x="587.5599999999873" y="295.155" as="sourcePoint"/>
                        <mxPoint x="602.61" y="294.96000000000004" as="targetPoint"/>
                    </mxGeometry>
                </mxCell>
                <mxCell id="177" value="" style="edgeStyle=orthogonalEdgeStyle;curved=1;rounded=0;orthogonalLoop=1;jettySize=auto;html=1;entryX=0;entryY=0.5;entryDx=0;entryDy=0;exitX=1;exitY=0.5;exitDx=0;exitDy=0;" edge="1" parent="1" target="178">
                    <mxGeometry relative="1" as="geometry">
                        <mxPoint x="554.61" y="294.96000000000004" as="sourcePoint"/>
                        <mxPoint x="595.61" y="294.96000000000004" as="targetPoint"/>
                    </mxGeometry>
                </mxCell>
                <mxCell id="178" value="&lt;font style=&quot;font-size: 10px;&quot;&gt;$$y$$&lt;/font&gt;" style="ellipse;whiteSpace=wrap;html=1;fillColor=#00CCCC;" vertex="1" parent="1">
                    <mxGeometry x="550.54" y="278.94" width="30.02" height="32.43" as="geometry"/>
                </mxCell>
            </root>
        </mxGraphModel>
    </diagram>
</mxfile>